<svg xmlns="http://www.w3.org/2000/svg" viewBox="0 0 538.16 307.36"><defs><style>.cls-1{fill:gold;}</style></defs><title>Ativo 4</title><g id="Camada_2" data-name="Camada 2"><g id="Layer_1" data-name="Layer 1"><path class="cls-1" d="M287.78,282.53a233.92,233.92,0,0,1-25.18.8c-1.58,0-3.21-.09-4.9-.16l-2.58-.12L253.8,283l-.59,0-.67-.06-11.54-1c-1-.07-2-.24-3-.39l-3.06-.46-6.33-.93c-1.08-.14-2.16-.37-3.25-.6l-3.31-.69-6.79-1.42a215.23,215.23,0,0,1-57.73-23.13c-4.75-2.95-9.64-5.8-14.25-9.18-4.77-3.16-9.23-6.82-13.8-10.37-2.23-1.85-4.39-3.79-6.59-5.69-1.09-1-2.21-1.89-3.28-2.88l-3.14-3-3.14-3c-1.06-1-2.12-2-3.09-3.1l-6-6.38a269.29,269.29,0,0,1-38.43-55.79c-1.22-2.4-2.51-4.74-3.64-7.13l-3.32-7.1c-.54-1.18-1.1-2.33-1.62-3.5l-1.47-3.51c-1-2.33-1.94-4.63-2.88-6.89s-1.73-4.56-2.57-6.79-1.68-4.42-2.43-6.6c-1.42-4.39-2.89-8.59-4.12-12.68s-2.34-8-3.34-11.77-1.82-7.34-2.64-10.69-1.38-6.54-2-9.46q-.45-2.19-.87-4.2c-.23-1.35-.44-2.63-.65-3.85-.81-4.88-1.54-8.69-1.82-11.31s-.53-4-.53-4l-2.76.35s.17,1.4.5,4,1,6.49,1.73,11.4c.2,1.23.41,2.53.62,3.89s.55,2.76.84,4.24c.6,2.94,1.19,6.14,1.93,9.54s1.66,7,2.57,10.81,2.13,7.74,3.26,11.89c.28,1,.6,2.08.94,3.13s.67,2.1,1,3.17l2.08,6.53c.73,2.21,1.59,4.42,2.39,6.68s1.63,4.58,2.53,6.88,1.89,4.63,2.86,7c.48,1.18,1,2.37,1.45,3.56s1.07,2.36,1.6,3.55l3.3,7.22c1.12,2.42,2.4,4.8,3.62,7.24a273.06,273.06,0,0,0,38.46,57l6,6.55c.51.54,1,1.1,1.52,1.62l1.59,1.56,3.17,3.13,3.18,3.12c1.06,1,2.21,2,3.3,3,2.23,2,4.43,3.95,6.67,5.87,4.64,3.65,9.15,7.45,14,10.72l3.56,2.52c.6.42,1.18.85,1.79,1.25l1.83,1.16,7.31,4.6a221.25,221.25,0,0,0,58.95,24.27l6.95,1.51,3.39.74c1.12.24,2.22.5,3.35.65,4.46.68,8.77,1.43,12.84,2l11.54,1.13.68.07.42,0,.35,0,1.35.09,2.65.15c1.73.08,3.41.15,5,.2a236.88,236.88,0,0,0,26-.62,1.71,1.71,0,0,0,1.67-1.79l-.24-2.8A1.74,1.74,0,0,0,287.78,282.53Z"/><path class="cls-1" d="M27.6,0A92.06,92.06,0,0,0,23,12.8a60.27,60.27,0,0,0-1.75,14A57.65,57.65,0,0,0,22,34.31a44.87,44.87,0,0,0,1.94,7.82,60.76,60.76,0,0,0,8.53,16.34,93.25,93.25,0,0,0,3.7-17.76c.19-2.68.41-5.27.35-7.76a52.42,52.42,0,0,0-.61-7.2,61.28,61.28,0,0,0-3.2-13.29A102.71,102.71,0,0,0,27.6,0Z"/><path class="cls-1" d="M28.06,17.12a77.82,77.82,0,0,0-1.94,8.36,47.62,47.62,0,0,0-.44,9,45.64,45.64,0,0,0,.47,4.82,44.85,44.85,0,0,0,1.19,5,53.51,53.51,0,0,0,1.85,5.26c.37.89.76,1.79,1.2,2.71s1,1.82,1.49,2.75c.2-1,.38-2.06.53-3.05s.34-2,.47-2.93a54.19,54.19,0,0,0,.48-5.48c.06-1.75,0-3.43-.08-5.06a44.77,44.77,0,0,0-.4-4.73,55.69,55.69,0,0,0-2-8.67A79.23,79.23,0,0,0,28.06,17.12Z"/><path class="cls-1" d="M60.53,39.64c-.2,4-.71,8-1.3,12a56,56,0,0,1-1.32,6c-.28,1-.6,2-.94,3s-.65,2-1,3a52.47,52.47,0,0,1-6.64,12A69.93,69.93,0,0,1,38,87.74a79.33,79.33,0,0,1-.43-9.38,53.23,53.23,0,0,1,.92-8.22A45.53,45.53,0,0,1,40.39,63a45.78,45.78,0,0,1,2.9-6.14C47.54,49.33,53.87,44.06,60.53,39.64Z"/><path class="cls-1" d="M52.46,54.56a58.86,58.86,0,0,1-1,6.84,38.47,38.47,0,0,1-1.93,6.89,35.75,35.75,0,0,1-3.68,7A44,44,0,0,1,40,82.5C39.82,68,45.78,60.44,52.46,54.56Z"/><path class="cls-1" d="M67.83,79.18l.27,6c.07,2,.06,4,0,6,0,1-.13,2-.24,3s-.18,2-.32,3a49.41,49.41,0,0,1-1.18,6.16,58.26,58.26,0,0,1-5,12.7,77,77,0,0,1-9.63,13.5A55.81,55.81,0,0,1,50,120.42a51.46,51.46,0,0,1-.24-8.24,44.33,44.33,0,0,1,3.06-13.74,45.37,45.37,0,0,1,6.47-10.7,55.1,55.1,0,0,1,4-4.47C64.81,81.84,66.3,80.49,67.83,79.18Z"/><path class="cls-1" d="M61.67,95v1.71l0,1.71c0,1.14,0,2.28-.1,3.44a38.45,38.45,0,0,1-1.12,7.1,40.28,40.28,0,0,1-7.57,15.31,45.34,45.34,0,0,1-.33-9.72q.09-1.08.24-2.1c.11-.69.26-1.37.41-2a33,33,0,0,1,1.12-3.72,33.46,33.46,0,0,1,3.19-6.36A41.34,41.34,0,0,1,61.67,95Z"/><path class="cls-1" d="M80.08,117.23c.41,1.94.78,3.89,1.07,5.87s.5,4,.73,6a54.85,54.85,0,0,1,.29,6c0,2.05-.19,4.16-.37,6.24a52,52,0,0,1-3.23,13.25A72.19,72.19,0,0,1,71,169.3a82.43,82.43,0,0,1-3-8.9,55.66,55.66,0,0,1-1.32-8.16,39.69,39.69,0,0,1,1.15-14,41.08,41.08,0,0,1,2-6,45.79,45.79,0,0,1,2.89-5.46A68.14,68.14,0,0,1,80.08,117.23Z"/><path class="cls-1" d="M76.1,133.59a57.94,57.94,0,0,1,.81,6.8,43.53,43.53,0,0,1-.06,7.12,36.46,36.46,0,0,1-1.66,7.72,47.68,47.68,0,0,1-3.68,8.48q-.78-2.61-1.25-5a38.34,38.34,0,0,1-.46-4.59,32.54,32.54,0,0,1,.6-8A36.86,36.86,0,0,1,76.1,133.59Z"/><path class="cls-1" d="M97.35,152.84c2.6,7.42,4.86,14.94,5.18,23.36.06,2.13,0,4.33-.15,6.54a53.27,53.27,0,0,1-1,7,67.73,67.73,0,0,1-2,7.58,84.17,84.17,0,0,1-3.08,8.16c-.89-1.42-1.72-2.81-2.46-4.18s-1.33-2.79-1.9-4.14a55.63,55.63,0,0,1-2.67-7.77,43.66,43.66,0,0,1-1-14,44.22,44.22,0,0,1,3.23-12A51.59,51.59,0,0,1,94.15,158C95.15,156.2,96.23,154.5,97.35,152.84Z"/><path class="cls-1" d="M95.72,169.52c.31,1.08.68,2.13,1,3.21s.62,2.18.87,3.3a37.82,37.82,0,0,1,.93,7.06A40.35,40.35,0,0,1,95.8,199.9c-3-6.63-4.16-12.11-3.76-17.15a31.89,31.89,0,0,1,1.25-7A40.17,40.17,0,0,1,95.72,169.52Z"/><path class="cls-1" d="M119.57,184.91c1.9,3.36,3.56,6.93,5.17,10.45a67.25,67.25,0,0,1,3.68,11.48c1.68,8.26,1.88,17.61-1,29.86a75.08,75.08,0,0,1-5.77-7.42,39.67,39.67,0,0,1-4-7.22,46.7,46.7,0,0,1-2.41-6.9,39.15,39.15,0,0,1-1-6.68,41,41,0,0,1,.11-6.29c.1-1,.23-2,.39-3s.41-2,.66-3A64.52,64.52,0,0,1,119.57,184.91Z"/><path class="cls-1" d="M120.66,201.47c1,1.95,2,4,2.85,6.12a37.25,37.25,0,0,1,2.19,6.67,44.61,44.61,0,0,1,.29,17q-1.59-2.2-2.8-4.27a25,25,0,0,1-2-4.11,32.23,32.23,0,0,1-2-7.74A34.09,34.09,0,0,1,120.66,201.47Z"/><path class="cls-1" d="M146.53,212.25a82.82,82.82,0,0,1,6.89,9.22,50.36,50.36,0,0,1,5.71,10.5,52.29,52.29,0,0,1,3.77,12.87c.19,1.24.38,2.47.55,3.73s.3,2.59.39,4q.3,4.08.18,8.76-2-1.5-3.83-3c-.6-.5-1.18-1-1.74-1.49a18.16,18.16,0,0,1-1.61-1.55,58,58,0,0,1-5.27-6.32,34.22,34.22,0,0,1-2-3.13c-.59-1.08-1.13-2.15-1.61-3.22a42.1,42.1,0,0,1-2.24-6.29c-.27-1-.5-2.06-.69-3.08s-.28-2.09-.36-3.12a44.56,44.56,0,0,1,0-6.11A60,60,0,0,1,146.53,212.25Z"/><path class="cls-1" d="M150.57,228.21a54.76,54.76,0,0,1,4,5.37c.61.95,1.19,2,1.75,3a34.3,34.3,0,0,1,1.63,3.14,44.94,44.94,0,0,1,3.6,16.57,32.84,32.84,0,0,1-6.32-7.3,28.5,28.5,0,0,1-3.46-7.11A36.18,36.18,0,0,1,150.57,228.21Z"/><path class="cls-1" d="M177.86,233.5q1.09.92,2.16,1.86l1.06.95,1.09.91c1.45,1.21,2.85,2.49,4.22,3.86a72.35,72.35,0,0,1,7.68,9.09c.59.86,1.16,1.76,1.71,2.69s1.08,1.92,1.62,2.86a53.07,53.07,0,0,1,3,6.28,87.62,87.62,0,0,1,4.46,15.92,49.31,49.31,0,0,1-8.24-4.49c-1.22-.81-2.37-1.62-3.46-2.44-.54-.41-1.07-.82-1.58-1.24s-1-.89-1.45-1.34a48.22,48.22,0,0,1-4.86-5.49,31.35,31.35,0,0,1-3.49-5.68,41.86,41.86,0,0,1-3.55-11.79c-.14-1-.26-1.95-.34-2.95s-.12-2-.14-3C177.69,237.48,177.74,235.49,177.86,233.5Z"/><path class="cls-1" d="M184.93,248.32c1.64,1.49,3.35,2.84,4.95,4.43a37.15,37.15,0,0,1,4.54,5.36c.69,1,1.4,2,2.05,3.13a36.74,36.74,0,0,1,1.87,3.54,48.46,48.46,0,0,1,3,8.79,44.3,44.3,0,0,1-7.69-5.82,20.82,20.82,0,0,1-2.72-3.13,33.88,33.88,0,0,1-2.09-3.23A33,33,0,0,1,184.93,248.32Z"/><path class="cls-1" d="M212.66,247.91c1.69.84,3.36,1.72,5,2.68s3.27,2,4.92,3a53.35,53.35,0,0,1,4.81,3.35c.78.62,1.56,1.27,2.33,1.95l1.14,1c.36.33.72.66,1.08,1a57.43,57.43,0,0,1,8.33,10.33c.64,1.06,1.45,2.08,2.14,3.2s1.41,2.27,2.07,3.48a67.34,67.34,0,0,1,3.7,8,69.55,69.55,0,0,1-9-2.69,59.35,59.35,0,0,1-7.36-3.73,37.15,37.15,0,0,1-10.42-9.24,39.68,39.68,0,0,1-3.46-5.19,44.07,44.07,0,0,1-2.45-5.62A61.26,61.26,0,0,1,212.66,247.91Z"/><path class="cls-1" d="M222.67,260.91a56.77,56.77,0,0,1,5.77,3.39c.47.33.94.66,1.41,1s.9.63,1.35,1a33.51,33.51,0,0,1,2.65,2.24,38.57,38.57,0,0,1,5.11,5.85c.82,1.16,1.64,2.42,2.51,3.7a43.69,43.69,0,0,1,2.42,4.26c-.87-.28-1.7-.58-2.51-.88a18.53,18.53,0,0,1-2.3-1,39.41,39.41,0,0,1-4-2.32,30.3,30.3,0,0,1-6-5.13A36.25,36.25,0,0,1,222.67,260.91Z"/><path class="cls-1" d="M0,47A80.85,80.85,0,0,0,4.82,60.25,66.17,66.17,0,0,0,8.15,66.4c.61,1,1.24,2,1.91,2.9s1.44,1.87,2.21,2.77a44.82,44.82,0,0,0,11.07,9.41,53.6,53.6,0,0,0,15.68,6,82.39,82.39,0,0,0-3.92-8.56A80.29,80.29,0,0,0,31,71.66a64.58,64.58,0,0,0-4.55-6.08,51.66,51.66,0,0,0-4.75-5.1C15,54.29,7.68,50.32,0,47Z"/><path class="cls-1" d="M12.22,61.13A64.37,64.37,0,0,0,15.5,68a39.49,39.49,0,0,0,4.59,6.29,33.27,33.27,0,0,0,6.2,5.39,38.31,38.31,0,0,0,8.55,4.07C28.45,70.5,20.53,65.16,12.22,61.13Z"/><path class="cls-1" d="M8.7,94c.45,1.1.92,2.19,1.4,3.27s1,2.14,1.58,3.19c1.09,2.1,2.25,4.16,3.49,6.14.62,1,1.26,2,1.93,2.93s1.42,1.87,2.16,2.77a53.19,53.19,0,0,0,4.84,5.12,42,42,0,0,0,12.25,7.92,50.28,50.28,0,0,0,16.3,3.9c-1.74-2.87-3.3-5.56-5-8a81.14,81.14,0,0,0-5.13-6.63,57.09,57.09,0,0,0-10.67-9.92,58,58,0,0,0-11.31-6.46c-1.95-.86-3.95-1.61-5.92-2.31S10.69,94.64,8.7,94Z"/><path class="cls-1" d="M22.59,106.59c.31.56.62,1.11.95,1.65l1,1.62c.71,1.06,1.45,2.1,2.23,3.12a40.44,40.44,0,0,0,5.28,5.69A34.54,34.54,0,0,0,48,126.14a48.89,48.89,0,0,0-6.12-7.83c-.52-.54-1.05-1.06-1.58-1.55s-1-1-1.54-1.43a35,35,0,0,0-3.13-2.48,39.65,39.65,0,0,0-6.45-3.69C27,108.16,24.74,107.34,22.59,106.59Z"/><path class="cls-1" d="M23.45,139.81c1.24,2.06,2.52,4.08,3.86,6.05a56,56,0,0,0,4.28,5.66,67.59,67.59,0,0,0,4.88,5.12A40.87,40.87,0,0,0,42,161.08a45.23,45.23,0,0,0,13.24,6.19,52.48,52.48,0,0,0,16.75,1.49,83.35,83.35,0,0,0-6.13-7.15,73,73,0,0,0-5.94-5.89,66.64,66.64,0,0,0-11.94-8.36,55.1,55.1,0,0,0-6.09-2.78c-2-.81-4-1.51-6.05-2.11A99,99,0,0,0,23.45,139.81Z"/><path class="cls-1" d="M39,150.46a64.41,64.41,0,0,0,5,5.8,35.26,35.26,0,0,0,6.1,4.89,33.08,33.08,0,0,0,7.45,3.56,36.54,36.54,0,0,0,9.34,1.6c-1.23-1.37-2.46-2.61-3.69-3.74s-2.34-2.19-3.51-3.13a39.28,39.28,0,0,0-7-4.52A48.84,48.84,0,0,0,39,150.46Z"/><path class="cls-1" d="M44.61,183.43c6,7.55,13,14.29,21.62,18.45A41.6,41.6,0,0,0,80.36,206a46.73,46.73,0,0,0,8,.19,57.32,57.32,0,0,0,8.78-1.38c-1.24-1.12-2.48-2.17-3.7-3.17s-2.33-2-3.48-2.92a72.66,72.66,0,0,0-6.89-4.81,57.66,57.66,0,0,0-13.11-6.46,59.25,59.25,0,0,0-12.72-3.09c-2.12-.29-4.27-.46-6.35-.61S46.7,183.47,44.61,183.43Z"/><path class="cls-1" d="M61.57,191.79a35.44,35.44,0,0,0,2.88,2.59c1,.83,2,1.63,3.06,2.39a39.34,39.34,0,0,0,6.73,4,34.35,34.35,0,0,0,17.42,2.47,49,49,0,0,0-15.78-9.1,41,41,0,0,0-7.26-1.71C66.24,192.06,63.85,191.92,61.57,191.79Z"/><path class="cls-1" d="M72.53,223.71a78,78,0,0,0,11.57,8.83,49.53,49.53,0,0,0,13.06,5.92c9.18,2.73,19.64,2.33,30.92-2.57a89.13,89.13,0,0,0-8.13-4.73c-2.68-1.3-5.14-2.55-7.59-3.57a58.44,58.44,0,0,0-7.23-2.48,60.79,60.79,0,0,0-6.83-1.64,57.34,57.34,0,0,0-6.67-.78c-1.1-.07-2.2-.1-3.29-.11s-2.13,0-3.19,0A100.31,100.31,0,0,0,72.53,223.71Z"/><path class="cls-1" d="M90.79,229.23a55.45,55.45,0,0,0,6.67,4,41.37,41.37,0,0,0,7.45,2.71,32,32,0,0,0,17.61-.67q-2.42-1.33-4.71-2.32c-1.53-.66-3-1.21-4.42-1.75a39.62,39.62,0,0,0-8.1-2.05A54.37,54.37,0,0,0,90.79,229.23Z"/><path class="cls-1" d="M107.39,259a101.14,101.14,0,0,0,13.13,6.65,60.48,60.48,0,0,0,14,3.39,45.42,45.42,0,0,0,14.78-1.31,32.81,32.81,0,0,0,3.76-1.22q1.9-.74,3.81-1.65a54,54,0,0,0,7.59-4.51q-2.32-.89-4.58-1.6c-.75-.24-1.49-.47-2.22-.68s-1.46-.41-2.16-.65a70,70,0,0,0-8.13-2c-1.31-.25-2.62-.42-3.88-.6s-2.46-.37-3.67-.49a56.62,56.62,0,0,0-7.08-.26q-1.72,0-3.42.18c-1.12.09-2.2.16-3.29.29-2.16.24-4.29.59-6.39,1A114,114,0,0,0,107.39,259Z"/><path class="cls-1" d="M126.5,261.12a70.73,70.73,0,0,0,7.4,2.62,37.82,37.82,0,0,0,3.82.89c1.32.19,2.66.32,4,.38a31.93,31.93,0,0,0,17.18-4.1,78.93,78.93,0,0,0-9.74-2.24,44.38,44.38,0,0,0-8.41-.37A49.47,49.47,0,0,0,126.5,261.12Z"/><path class="cls-1" d="M148.86,287.14c1.17.43,2.34.85,3.52,1.25l1.76.59c.59.17,1.2.32,1.8.48,2.4.62,4.81,1.15,7.21,1.57a48.58,48.58,0,0,0,14.49.46c1.21-.13,2.4-.31,3.59-.54a28.14,28.14,0,0,0,3.57-.88,45.51,45.51,0,0,0,7-2.88,46.26,46.26,0,0,0,13.3-10.28c-3.34-.36-6.39-.89-9.35-1.09-1.47-.11-2.91-.18-4.32-.2h-2.09c-.68,0-1.34,0-2,0a60.37,60.37,0,0,0-7.61.44c-2.42.28-4.79.79-7,1.21a63.78,63.78,0,0,0-12.56,4.14c-1,.44-2,.91-2.94,1.37s-1.9.9-2.84,1.38C152.55,285.08,150.7,286.1,148.86,287.14Z"/><path class="cls-1" d="M168.07,285.44a43.18,43.18,0,0,0,7.8,1.05,40.45,40.45,0,0,0,7.92-.3,23.9,23.9,0,0,0,4-.93,33.19,33.19,0,0,0,4-1.55,35.85,35.85,0,0,0,7.94-5.07,50.63,50.63,0,0,0-10-.18c-1.53.16-2.95.28-4.32.48a36.8,36.8,0,0,0-3.95.78A56.34,56.34,0,0,0,168.07,285.44Z"/><path class="cls-1" d="M195.34,306.37c2.48.31,4.95.57,7.41.74a48.64,48.64,0,0,0,7.34.11,69.17,69.17,0,0,0,7.23-.78c1.18-.2,2.36-.43,3.52-.7.59-.13,1.17-.28,1.74-.43s1.21-.37,1.8-.57a43.7,43.7,0,0,0,13.28-7,24.21,24.21,0,0,0,2.82-2.65c.91-1,1.81-2,2.69-3a66.38,66.38,0,0,0,5.13-7.15c-3.35.13-6.46.49-9.36.88a70,70,0,0,0-8.27,1.34,74.43,74.43,0,0,0-14,4.59,61.81,61.81,0,0,0-6,3.18c-1.89,1.08-3.7,2.23-5.45,3.46A109.51,109.51,0,0,0,195.34,306.37Z"/><path class="cls-1" d="M213.76,300.7a68,68,0,0,0,7.82-.51c.65-.08,1.29-.18,1.93-.29s1.33-.29,2-.46a38.62,38.62,0,0,0,3.92-1.22,32.17,32.17,0,0,0,7.42-3.94,22,22,0,0,0,3.38-2.94,44.81,44.81,0,0,0,3.17-3.73c-.9.12-1.78.25-2.63.4s-1.67.31-2.49.43a45.9,45.9,0,0,0-4.63,1,43,43,0,0,0-7.93,3A50.43,50.43,0,0,0,213.76,300.7Z"/><path class="cls-1" d="M249.71,288.69c1.93.14,5.14.36,9.51.52,2.18.07,4.64.13,7.37.15h3.26l1.09,0,4.61-.15,5-.16,2.61-.09c.89,0,1.81-.15,2.73-.23l11.74-1.08,12.78-1.95c4.41-.85,9-1.89,13.68-2.89a221.33,221.33,0,0,0,59-24.18L384,258l.9-.58,1.82-1.17,3.64-2.34,3.66-2.36c1.22-.78,2.37-1.69,3.56-2.53l7.11-5.17,6.86-5.59c1.14-1,2.31-1.85,3.42-2.83l3.29-3,3.29-3c1.08-1,2.23-2,3.25-3.05l6.26-6.35,1.56-1.59c.51-.53,1-1.1,1.49-1.65l3-3.33c15.88-17.65,28.6-37.57,38.63-56.94a320,320,0,0,0,21.77-55,332.27,332.27,0,0,0,9.27-40.42c.41-2.46.78-4.66,1.09-6.56s.47-3.55.64-4.87l.52-4-2.76-.36-.55,4c-.18,1.3-.38,2.92-.67,4.81s-.71,4.06-1.14,6.49a328.58,328.58,0,0,1-9.52,39.93,316.28,316.28,0,0,1-22,54.19c-1.28,2.37-2.58,4.75-3.89,7.16-.67,1.19-1.28,2.42-2,3.6L464.36,169c-1.45,2.37-2.86,4.79-4.36,7.16l-4.71,7.06c-.8,1.17-1.55,2.39-2.4,3.54l-2.56,3.45c-1.72,2.29-3.37,4.66-5.17,6.92-3.67,4.45-7.23,9.05-11.23,13.28a226.16,226.16,0,0,1-53.21,43.73A216.89,216.89,0,0,1,323,277.35c-4.62.93-9.07,1.89-13.37,2.72l-12.49,1.79-11.35,1-2.64.21-2.62.07-5,.12-4.62.12-1.1,0-.54,0h-.44l-2.06,0c-2.67,0-5.09-.11-7.23-.2-4.28-.18-7.45-.42-9.34-.57a1.74,1.74,0,0,0-1.93,1.5l-.23,2.81A1.72,1.72,0,0,0,249.71,288.69Z"/><path class="cls-1" d="M510.55,0a104.42,104.42,0,0,0-5.09,12.46,62.41,62.41,0,0,0-3.2,13.3,61.81,61.81,0,0,0-.61,7.21,65.07,65.07,0,0,0,.38,7.76,66.64,66.64,0,0,0,1.27,8.45c.32,1.47.69,3,1.12,4.54s.8,3.14,1.29,4.78c1-1.39,1.94-2.78,2.82-4.15s1.57-2.76,2.27-4.13a65.84,65.84,0,0,0,3.46-8.08,53.44,53.44,0,0,0,1.91-7.81,50.29,50.29,0,0,0,.72-7.5,58.85,58.85,0,0,0-1.74-14A93.33,93.33,0,0,0,510.55,0Z"/><path class="cls-1" d="M510.09,17.13a79.27,79.27,0,0,0-2.84,8c-.38,1.38-.78,2.79-1.14,4.23s-.63,2.92-.84,4.45a60.17,60.17,0,0,0,1,21.25c4.06-7.44,6-14.28,6.17-20.57.07-1.57.07-3.1,0-4.61a32,32,0,0,0-.45-4.41A75,75,0,0,0,510.09,17.13Z"/><path class="cls-1" d="M538.16,47c-.67,2.29-1.38,4.55-2.16,6.77a58.45,58.45,0,0,1-2.66,6.51A56.92,56.92,0,0,1,525.9,72.1a46.41,46.41,0,0,1-11.11,9.41A45.19,45.19,0,0,1,507.57,85a60.14,60.14,0,0,1-8.47,2.51c.62-1.55,1.27-3,1.93-4.46s1.37-2.78,2-4.1a67.87,67.87,0,0,1,4.16-7.26c.74-1.1,1.49-2.16,2.26-3.17s1.48-2,2.25-2.92a53.2,53.2,0,0,1,4.79-5.1,56.59,56.59,0,0,1,5.15-4.25,59.07,59.07,0,0,1,5.29-3.57A94.63,94.63,0,0,1,538.16,47Z"/><path class="cls-1" d="M525.93,61.15c-2,4.68-4.22,9.24-7.87,13.16a33.58,33.58,0,0,1-6.25,5.38,34.6,34.6,0,0,1-3.9,2.24,43,43,0,0,1-4.59,1.84c.41-.83.83-1.62,1.25-2.38s.81-1.52,1.23-2.23a44.85,44.85,0,0,1,2.55-4,38.54,38.54,0,0,1,5.58-6.2A46.53,46.53,0,0,1,525.93,61.15Z"/><path class="cls-1" d="M529.42,94.07c-.92,2.19-1.89,4.36-2.93,6.48s-2.28,4.15-3.54,6.13a66.14,66.14,0,0,1-4.06,5.71A45.89,45.89,0,0,1,514,117.5a47.84,47.84,0,0,1-5.64,4.4c-1,.67-2.05,1.3-3.13,1.9s-2.26,1.13-3.45,1.63a52.76,52.76,0,0,1-16.31,3.9,94.76,94.76,0,0,1,10.06-14.63,57.37,57.37,0,0,1,5.29-5.46,66.81,66.81,0,0,1,5.38-4.46,59.52,59.52,0,0,1,11.4-6.45A94.86,94.86,0,0,1,529.42,94.07Z"/><path class="cls-1" d="M515.51,106.63q-.94,1.65-2,3.27a32.88,32.88,0,0,1-2.21,3.13A39.71,39.71,0,0,1,506,118.7a34.05,34.05,0,0,1-3.19,2.45,26.64,26.64,0,0,1-3.69,2.09,38.1,38.1,0,0,1-9,2.93q1.51-2.31,3.08-4.24c.52-.65,1.05-1.27,1.57-1.86s1-1.17,1.51-1.72a38.41,38.41,0,0,1,6.26-5.46A50.69,50.69,0,0,1,515.51,106.63Z"/><path class="cls-1" d="M514.68,139.86a69.56,69.56,0,0,1-3.86,6c-1.37,2-2.79,3.85-4.29,5.66-.76.91-1.5,1.81-2.33,2.66s-1.67,1.67-2.54,2.47a55.63,55.63,0,0,1-5.51,4.43,41.89,41.89,0,0,1-13.28,6.17,46.92,46.92,0,0,1-7.84,1.44,54.41,54.41,0,0,1-8.87.07c1-1.31,2.13-2.52,3.11-3.73s2-2.36,3-3.44a72.86,72.86,0,0,1,6.05-5.84,55.54,55.54,0,0,1,11.95-8.36,58.43,58.43,0,0,1,12.08-4.92A112.63,112.63,0,0,1,514.68,139.86Z"/><path class="cls-1" d="M499.19,150.53a48.58,48.58,0,0,1-11.12,10.71,34.62,34.62,0,0,1-16.8,5.15,44.54,44.54,0,0,1,27.92-15.86Z"/><path class="cls-1" d="M493.51,183.5c-1.54,1.87-3.11,3.71-4.73,5.47-.81.89-1.64,1.76-2.47,2.6s-1.76,1.64-2.66,2.42a70.88,70.88,0,0,1-5.63,4.38,40.12,40.12,0,0,1-6.14,3.59,45,45,0,0,1-14.09,4.09,51.77,51.77,0,0,1-16.8-1.21,84.6,84.6,0,0,1,7.22-6.07,76.34,76.34,0,0,1,6.79-4.89c1.13-.7,2.25-1.36,3.37-2l3.29-1.72a55,55,0,0,1,6.46-2.76,57.94,57.94,0,0,1,6.45-1.86c2.15-.48,4.2-.91,6.32-1.2A98.74,98.74,0,0,1,493.51,183.5Z"/><path class="cls-1" d="M476.5,191.84a68.21,68.21,0,0,1-5.87,5,36.09,36.09,0,0,1-6.83,3.92,33.23,33.23,0,0,1-7.93,2.36,36,36,0,0,1-9.49.1,51.8,51.8,0,0,1,4.26-3.1,43.84,43.84,0,0,1,4-2.55,39,39,0,0,1,7.65-3.39c.62-.2,1.25-.38,1.86-.54s1.2-.34,1.8-.49c1.19-.29,2.38-.52,3.56-.7A62.42,62.42,0,0,1,476.5,191.84Z"/><path class="cls-1" d="M465.56,223.78c-.91.82-1.81,1.63-2.73,2.43s-1.91,1.53-2.88,2.27c-1.95,1.46-3.94,2.85-6,4.13-1,.64-2,1.26-3.08,1.84s-2.15,1.09-3.24,1.58a54.7,54.7,0,0,1-6.75,2.5,40.33,40.33,0,0,1-14.68,1.56,46.7,46.7,0,0,1-7.9-1.24A52.31,52.31,0,0,1,410,235.9l2.13-1.25c.36-.19.71-.39,1.06-.59l1-.61c1.33-.81,2.66-1.55,4-2.24,2.6-1.4,5.21-2.49,7.65-3.52a61,61,0,0,1,14.06-4.12C448.69,221.88,457.34,222.67,465.56,223.78Z"/><path class="cls-1" d="M447.32,229.32l-1.6,1.1c-.55.34-1.12.67-1.69,1-1.13.65-2.28,1.26-3.46,1.83a39.27,39.27,0,0,1-7.36,2.78,33.72,33.72,0,0,1-17.63-.66,50.36,50.36,0,0,1,9.1-4.12c.72-.24,1.43-.46,2.14-.66s1.36-.41,2-.58a36.46,36.46,0,0,1,3.92-.81,40.83,40.83,0,0,1,7.49-.44c1.21,0,2.41.11,3.59.22S446.17,229.18,447.32,229.32Z"/><path class="cls-1" d="M430.65,259c-2.14,1.27-4.29,2.49-6.47,3.62-1.08.57-2.17,1.12-3.27,1.64s-2.27.94-3.41,1.37a67.71,67.71,0,0,1-6.93,2.18c-1.16.3-2.33.56-3.5.78a36.12,36.12,0,0,1-3.62.43,43.47,43.47,0,0,1-14.75-1.27,50,50,0,0,1-15.16-7.37,87.19,87.19,0,0,1,9-2.94c.72-.18,1.42-.38,2.1-.59s1.37-.39,2-.56c1.35-.35,2.68-.65,4-.9s2.6-.46,3.87-.63l3.72-.42a56.1,56.1,0,0,1,7-.31,59.52,59.52,0,0,1,6.74.51c2.21.3,4.29.59,6.39,1A107.73,107.73,0,0,1,430.65,259Z"/><path class="cls-1" d="M411.53,261.15a65.37,65.37,0,0,1-7.35,2.69,37.42,37.42,0,0,1-7.88,1.22,32.67,32.67,0,0,1-8.28-.66,36.41,36.41,0,0,1-8.89-3.45C393.23,256.6,402.63,258.27,411.53,261.15Z"/><path class="cls-1" d="M389.17,287.21c-9.37,3.42-19.14,5.5-28.8,4.33a39.56,39.56,0,0,1-14.2-4.31,45.51,45.51,0,0,1-6.78-4.27,40.31,40.31,0,0,1-3.29-2.77q-1.64-1.53-3.22-3.25c3.34-.36,6.4-.86,9.35-1.08s5.77-.23,8.43-.21a60.72,60.72,0,0,1,14.61,1.67,62.84,62.84,0,0,1,12.54,4.09c2,.87,3.92,1.84,5.81,2.81S387.34,286.18,389.17,287.21Z"/><path class="cls-1" d="M370,285.51a31.43,31.43,0,0,1-3.88.66c-1.31.17-2.63.29-3.94.37a40.31,40.31,0,0,1-7.91-.29,33.61,33.61,0,0,1-16-7.57,51.46,51.46,0,0,1,10-.19,54.86,54.86,0,0,1,8.27,1.28,42.15,42.15,0,0,1,7.1,2.49C365.85,283.25,368,284.42,370,285.51Z"/><path class="cls-1" d="M342.66,306.41c-2.48.31-5,.56-7.41.73a48.65,48.65,0,0,1-7.34.12,56.91,56.91,0,0,1-14.23-2.49,45.39,45.39,0,0,1-13-7.1,40.77,40.77,0,0,1-5.83-5.61,50.45,50.45,0,0,1-5.15-7.18c1.66.08,3.27.21,4.84.37q1.17.12,2.31.27c.76.1,1.5.14,2.23.23a67.1,67.1,0,0,1,8.28,1.38c1.3.3,2.56.63,3.79,1s2.41.65,3.56,1a55,55,0,0,1,6.59,2.56,59.61,59.61,0,0,1,6,3.19,63.5,63.5,0,0,1,5.45,3.45A106.61,106.61,0,0,1,342.66,306.41Z"/><path class="cls-1" d="M324.24,300.73c-5.25-.12-10.45-.42-15.5-2.51a32.9,32.9,0,0,1-10.8-6.85,38.06,38.06,0,0,1-3.32-3.73c.93.12,1.82.25,2.7.4s1.7.23,2.51.38a42.52,42.52,0,0,1,4.62,1,40.83,40.83,0,0,1,7.86,3.05A49.44,49.44,0,0,1,324.24,300.73Z"/><path class="cls-1" d="M477.63,39.66c.1,2,.25,4,.47,6s.55,4,.83,6a55.24,55.24,0,0,0,3.31,12,50.56,50.56,0,0,0,6.6,12,73.65,73.65,0,0,0,5,6,77,77,0,0,0,6.31,6.09c.18-1.67.31-3.28.4-4.84a40.63,40.63,0,0,0,0-4.54,59.92,59.92,0,0,0-.9-8.22c-.23-1.27-.5-2.5-.8-3.68s-.73-2.34-1.14-3.44a44,44,0,0,0-2.87-6.14,43,43,0,0,0-3.52-5.26,48,48,0,0,0-4.21-4.55A67.23,67.23,0,0,0,477.63,39.66Z"/><path class="cls-1" d="M485.69,54.58a52.38,52.38,0,0,0,2.95,13.74,35.63,35.63,0,0,0,3.63,7,42.34,42.34,0,0,0,2.66,3.58c1,1.19,2,2.4,3.22,3.61,0-.9,0-1.78,0-2.63s-.12-1.69-.2-2.5a41.88,41.88,0,0,0-.76-4.55,32.55,32.55,0,0,0-2.68-7.54A38.3,38.3,0,0,0,485.69,54.58Z"/><path class="cls-1" d="M470.29,79.21c-.13,2-.21,4-.21,6s-.1,4,0,6a55.8,55.8,0,0,0,.58,6.11c.32,2,.63,4.07,1.16,6.14a49.38,49.38,0,0,0,2,6.29c.42,1.06.89,2.13,1.4,3.21s1,2.14,1.6,3.22a71,71,0,0,0,9.62,13.51c1.52-6.55,2.22-12.3,1.82-17.52a48.78,48.78,0,0,0-1-7.29,37.15,37.15,0,0,0-2.08-6.45,43.82,43.82,0,0,0-6.38-10.68A68,68,0,0,0,470.29,79.21Z"/><path class="cls-1" d="M476.44,95c0,1.14,0,2.28,0,3.43s.09,2.3.14,3.46a37.3,37.3,0,0,0,1.05,7.08,34.84,34.84,0,0,0,1.13,3.67c.47,1.24,1,2.49,1.58,3.75a44.87,44.87,0,0,0,4.85,7.88,48.23,48.23,0,0,0,.5-5.1c0-.8.05-1.58,0-2.34s-.09-1.53-.17-2.25a33.06,33.06,0,0,0-1.76-7.85A35.94,35.94,0,0,0,476.44,95Z"/><path class="cls-1" d="M458.05,117.27c-.33,2-.76,3.9-1.08,5.87s-.57,3.94-.73,6c-.08,1-.11,2-.17,3s-.1,2-.11,3a49,49,0,0,0,.35,6.23,57.7,57.7,0,0,0,3.19,13.23,63,63,0,0,0,3.2,7.17,85.61,85.61,0,0,0,4.37,7.57c.64-1.55,1.28-3,1.74-4.54s.87-3,1.22-4.38a57.23,57.23,0,0,0,1.42-8.11,45.28,45.28,0,0,0-1.14-14,44.25,44.25,0,0,0-5-11.46A61.34,61.34,0,0,0,458.05,117.27Z"/><path class="cls-1" d="M462.07,133.66a45.69,45.69,0,0,0-.74,13.93,39.9,39.9,0,0,0,5.32,16.2c1.94-7,2.2-12.64,1-17.56A36.61,36.61,0,0,0,462.07,133.66Z"/><path class="cls-1" d="M440.78,152.89q-1,2.76-1.88,5.59c-.28,1-.55,1.91-.8,2.87s-.54,1.89-.78,2.85a52.9,52.9,0,0,0-1.17,5.89c-.28,2-.43,4.11-.56,6.18a52.3,52.3,0,0,0,1.15,13.53,73.1,73.1,0,0,0,5.06,15.71,79.5,79.5,0,0,0,4.4-8.29,54.35,54.35,0,0,0,2.58-7.85c.32-1.25.57-2.48.78-3.68.1-.6.19-1.19.26-1.78s.1-1.19.14-1.78a42.87,42.87,0,0,0-.17-6.75,40.58,40.58,0,0,0-1.13-6.19,41.55,41.55,0,0,0-2.05-5.8A66,66,0,0,0,440.78,152.89Z"/><path class="cls-1" d="M442.36,169.55a57,57,0,0,0-1.81,6.56,43.38,43.38,0,0,0-1,7A35.83,35.83,0,0,0,440,191a48.29,48.29,0,0,0,2.27,8.94c.8-1.63,1.47-3.18,2-4.68a38.45,38.45,0,0,0,1.18-4.46,31.92,31.92,0,0,0,.64-7.95c0-.61-.08-1.21-.14-1.81s-.18-1.2-.3-1.79c-.23-1.17-.51-2.3-.84-3.4A47.6,47.6,0,0,0,442.36,169.55Z"/><path class="cls-1" d="M418.53,185c-.46.85-.9,1.72-1.34,2.59s-.92,1.7-1.36,2.56c-.89,1.72-1.72,3.48-2.48,5.3-.37.91-.73,1.83-1.06,2.78s-.71,1.84-1,2.79a50.08,50.08,0,0,0-1.61,5.91,62.35,62.35,0,0,0-1.22,13.42,67.06,67.06,0,0,0,.64,7.81c.38,2.75.84,5.55,1.54,8.59.58-.61,1.13-1.22,1.67-1.83l.79-.9.72-.94q1.41-1.89,2.62-3.72a49.63,49.63,0,0,0,4-7.17,42.45,42.45,0,0,0,3.39-13.58C424.22,199.82,422,192.29,418.53,185Z"/><path class="cls-1" d="M417.46,201.56l-.74,1.51-.76,1.47c-.51,1-1,2-1.42,3.07a38.73,38.73,0,0,0-2.12,6.76,41.57,41.57,0,0,0-.31,17,44.34,44.34,0,0,0,4.77-8.42c.28-.67.53-1.32.76-2s.38-1.32.54-2a30,30,0,0,0,.66-3.8,30.8,30.8,0,0,0,0-7.06c-.12-1.13-.3-2.23-.52-3.31S417.76,202.63,417.46,201.56Z"/><path class="cls-1" d="M391.53,212.28c-1.22,1.45-2.41,2.94-3.56,4.49-.57.78-1.13,1.56-1.67,2.37s-1.14,1.54-1.68,2.34a51.82,51.82,0,0,0-3.06,5c-.47.88-.92,1.79-1.35,2.72s-.89,1.81-1.3,2.77a55.51,55.51,0,0,0-3.75,12.92A77.29,77.29,0,0,0,374,261.35a78.65,78.65,0,0,0,7.17-6.05,18.23,18.23,0,0,0,1.49-1.56c.47-.54.92-1.07,1.36-1.6.87-1.07,1.68-2.13,2.42-3.18s1.42-2.1,2-3.14a25,25,0,0,0,1.65-3.16,41.05,41.05,0,0,0,2.21-6.35A36.66,36.66,0,0,0,393.51,224,63.64,63.64,0,0,0,391.53,212.28Z"/><path class="cls-1" d="M387.48,228.23a56.75,56.75,0,0,0-3.92,5.44,41.3,41.3,0,0,0-3.42,6.08,37.21,37.21,0,0,0-2.4,7.47,47.44,47.44,0,0,0-1.21,9.1,49.18,49.18,0,0,0,3.62-3.58,30.59,30.59,0,0,0,2.72-3.69,31.7,31.7,0,0,0,3.45-7.15,27.13,27.13,0,0,0,1.28-7A45.31,45.31,0,0,0,387.48,228.23Z"/><path class="cls-1" d="M360.2,233.56c-5.83,4.81-11.5,9.85-16.23,16.66A65,65,0,0,0,337.65,262a70.82,70.82,0,0,0-2.48,7.42c-.37,1.35-.72,2.71-1.06,4.11s-.65,2.86-.94,4.38a46.62,46.62,0,0,0,8.25-4.49,48.82,48.82,0,0,0,6.51-5,37.43,37.43,0,0,0,11.89-23,48.78,48.78,0,0,0,.52-5.9Q360.4,236.54,360.2,233.56Z"/><path class="cls-1" d="M353.13,248.38c-.82.75-1.68,1.42-2.51,2.14s-1.66,1.47-2.46,2.26a36.76,36.76,0,0,0-4.53,5.39,41.53,41.53,0,0,0-7,15.45,44.34,44.34,0,0,0,7.7-5.85,25.62,25.62,0,0,0,4.81-6.34,31.08,31.08,0,0,0,2.69-6.5A37.33,37.33,0,0,0,353.13,248.38Z"/><path class="cls-1" d="M325.38,247.94c-1.69.83-3.37,1.72-5,2.67s-3.27,2-4.93,3A53.72,53.72,0,0,0,306,261a52,52,0,0,0-8.64,10.3c-1.36,2.13-2.63,4.28-3.89,6.7s-2.49,5-3.69,7.95c1.65-.37,3.22-.78,4.72-1.21.75-.22,1.48-.44,2.19-.67s1.41-.54,2.09-.82a58.85,58.85,0,0,0,7.37-3.69c1.1-.66,2.14-1.33,3.13-2s1.89-1.53,2.76-2.31a41.53,41.53,0,0,0,4.57-4.9,38.61,38.61,0,0,0,3.46-5.18,44.08,44.08,0,0,0,2.46-5.63A62.45,62.45,0,0,0,325.38,247.94Z"/><path class="cls-1" d="M315.35,260.93A56.88,56.88,0,0,0,304,268.56a37.46,37.46,0,0,0-5.2,5.83c-.83,1.15-1.63,2.39-2.42,3.75s-1.54,2.69-2.28,4.22c.85-.27,1.67-.56,2.46-.86s1.54-.69,2.26-1.05a43.46,43.46,0,0,0,4-2.29,31.44,31.44,0,0,0,6-5.12A36.33,36.33,0,0,0,315.35,260.93Z"/><circle class="cls-1" cx="269.01" cy="286.01" r="21.15"/><rect class="cls-1" x="260.42" y="277.42" width="17.18" height="17.18" transform="translate(-123.45 273.99) rotate(-45)"/></g></g></svg>